<svg width="39" height="39" viewBox="0 0 39 39" fill="none" xmlns="http://www.w3.org/2000/svg">
<path d="M17.1362 2.60998L17.1362 10.3797H18.7447L18.7447 2.6098L17.1362 2.60998ZM20.5266 5.47809V10.3797H22.1324V5.47809H20.5266ZM12.4413 11.9872V26.5016H26.9749V11.987L12.4413 11.9872ZM28.5808 16.8261V18.4306H33.4888V16.8262L28.5808 16.8261ZM5.92739 20.2112V21.8186H10.8356V20.2112H5.92739ZM13.8196 28.1087V33.0189H15.4282V28.1087H13.8196ZM20.5267 28.1087V33.0189H22.1353L22.1324 28.1088L20.5267 28.1087ZM23.9911 28.1087V36.2252H25.5967V28.1087H23.9911Z" fill="black"/>
<path d="M5.92757 14.9687V13.3642L10.8356 13.3643V14.9687H5.92757Z" fill="black"/>
<path d="M23.9882 10.3797L23.9882 2.60998L25.5967 2.6098L25.5967 10.3797H23.9882Z" fill="black"/>
<path d="M17.1391 36.2252V28.1087H18.7447V36.2252H17.1391Z" fill="black"/>
<path d="M28.5808 21.8156V20.2111L36.4147 20.2112V21.8156H28.5808Z" fill="black"/>
<path d="M28.5808 25.0906V23.4861L33.4888 23.4862V33.0189H31.883V25.0906H28.5808Z" fill="black"/>
<path d="M1.83154 25.0906V16.8263H10.8352V18.4307L3.44005 18.4306V25.0906H1.83154Z" fill="black"/>
<path d="M7.86469 33.0189V23.4862H10.8356V25.0936H9.47321V33.0189H7.86469Z" fill="black"/>
<path d="M28.5808 14.9688V13.3643H35.7755L35.7755 10.3797L37.3841 10.3797V14.9688H28.5808Z" fill="black"/>
<path d="M13.8197 10.3799V4.21456H8.61884L8.61884 2.61017L15.4282 2.60998L15.4282 10.3799H13.8197Z" fill="black"/>
<circle cx="8.61884" cy="3.23205" r="2.58564" fill="black"/>
<circle cx="24.779" cy="2.58564" r="2.58564" fill="black"/>
<circle cx="36.4142" cy="8.40331" r="2.58564" fill="black"/>
<circle cx="36.4142" cy="21.116" r="2.58564" fill="black"/>
<circle cx="32.7512" cy="32.7514" r="2.58564" fill="black"/>
<circle cx="17.884" cy="36.1989" r="2.58564" fill="black"/>
<circle cx="8.61884" cy="33.6133" r="2.58564" fill="black"/>
<circle cx="2.58564" cy="26.2873" r="2.58564" fill="black"/>
</svg>
