<svg width="122" height="122" viewBox="0 0 122 122" fill="none" xmlns="http://www.w3.org/2000/svg">
<path d="M53.4753 8.14472L53.4753 32.391H58.4948L58.4948 8.14415L53.4753 8.14472ZM64.0553 17.0949V32.391H69.0663V17.0949H64.0553ZM38.8242 37.4073V82.701H84.178V37.4067L38.8242 37.4073ZM89.1893 52.5076V57.5146H104.505V52.5079L89.1893 52.5076ZM18.4969 63.0712V68.0872H33.8134V63.0712H18.4969ZM43.1254 87.7162V103.039H48.1453V87.7162H43.1254ZM64.0555 87.7162V103.039H69.0754L69.0663 87.7164L64.0555 87.7162ZM74.8665 87.7162V113.045H79.877V87.7162H74.8665Z" fill="#EFEFEF"/>
<path d="M18.4974 46.7114V41.7045L33.8134 41.7048V46.7114H18.4974Z" fill="#EFEFEF"/>
<path d="M74.8575 32.391L74.8575 8.14472L79.877 8.14415L79.877 32.391H74.8575Z" fill="#EFEFEF"/>
<path d="M53.4843 113.045V87.7162H58.4948V113.045H53.4843Z" fill="#EFEFEF"/>
<path d="M89.1893 68.0779V63.0709L113.636 63.0712V68.0779H89.1893Z" fill="#EFEFEF"/>
<path d="M89.1893 78.2978V73.2908L104.505 73.2911V103.039H99.4943V78.2978H89.1893Z" fill="#EFEFEF"/>
<path d="M5.71533 78.2978V52.5082H33.8122V57.5149L10.7349 57.5146V78.2978H5.71533Z" fill="#EFEFEF"/>
<path d="M24.5424 103.039V73.2911H33.8134V78.3072H29.562V103.039H24.5424Z" fill="#EFEFEF"/>
<path d="M89.1893 46.7117V41.7048H111.641L111.641 32.3908L116.661 32.391V46.7117H89.1893Z" fill="#EFEFEF"/>
<path d="M43.1257 32.3915V13.152H26.8958L26.8958 8.14529L48.1453 8.14472L48.1453 32.3915H43.1257Z" fill="#EFEFEF"/>
<circle cx="26.8959" cy="10.086" r="8.06876" fill="#EFEFEF"/>
<circle cx="77.3256" cy="8.06876" r="8.06876" fill="#EFEFEF"/>
<circle cx="113.635" cy="26.2235" r="8.06876" fill="#EFEFEF"/>
<circle cx="113.635" cy="65.8948" r="8.06876" fill="#EFEFEF"/>
<circle cx="102.204" cy="102.204" r="8.06876" fill="#EFEFEF"/>
<circle cx="55.809" cy="112.963" r="8.06876" fill="#EFEFEF"/>
<circle cx="26.8959" cy="104.894" r="8.06876" fill="#EFEFEF"/>
<circle cx="8.06876" cy="82.0325" r="8.06876" fill="#EFEFEF"/>
</svg>
