<svg width="39" height="39" viewBox="0 0 39 39" fill="none" xmlns="http://www.w3.org/2000/svg">
<path d="M39 17.6312V21.3688C38.989 21.7108 38.8632 22.0391 38.6429 22.3009C38.4226 22.5627 38.1205 22.7427 37.7855 22.8119L34.718 23.3413C34.6204 23.3587 34.521 23.3639 34.4221 23.3569C34.0626 24.7496 33.5087 26.0847 32.7768 27.3228C32.8532 27.3867 32.9212 27.4599 32.9792 27.5409L34.7725 30.0844C34.9616 30.3703 35.0487 30.7118 35.0194 31.0533C34.9902 31.3949 34.8465 31.7166 34.6116 31.9662L31.9645 34.6136C31.7148 34.8475 31.3935 34.9904 31.0526 35.0191C30.7116 35.0479 30.371 34.9608 30.0856 34.7719L27.5424 32.981C27.4604 32.9234 27.3862 32.8554 27.3218 32.7786C26.0712 33.5167 24.7221 34.0734 23.3149 34.4319C23.3415 34.5822 23.3415 34.7359 23.3149 34.8861L22.8426 37.6192C22.7639 38.0006 22.559 38.3443 22.2609 38.5949C21.9629 38.8455 21.589 38.9882 21.1998 39H17.8002C17.411 38.9882 17.0371 38.8455 16.7391 38.5949C16.441 38.3443 16.2361 38.0006 16.1574 37.6192L15.6851 34.8861C15.6581 34.7359 15.6581 34.5821 15.6851 34.4319C14.2779 34.0734 12.9288 33.5167 11.6782 32.7786C11.6136 32.8545 11.5395 32.9216 11.4576 32.9784L8.91436 34.7719C8.6285 34.9611 8.28713 35.0481 7.94562 35.0189C7.6041 34.9897 7.28246 34.846 7.03287 34.611L4.38581 31.9636C4.15254 31.714 4.01006 31.3932 3.98134 31.0528C3.95263 30.7124 4.03934 30.3722 4.22751 30.087L6.02076 27.5435C6.07778 27.4618 6.14492 27.3876 6.22059 27.3228C5.48957 26.0845 4.93656 24.7495 4.57785 23.3569C4.47897 23.3639 4.37961 23.3586 4.28201 23.3413L1.21453 22.8119C0.879256 22.7431 0.576975 22.5632 0.356575 22.3013C0.136175 22.0395 0.0105442 21.7109 0 21.3688V17.6312C0.0105442 17.2891 0.136175 16.9605 0.356575 16.6986C0.576975 16.4368 0.879256 16.2569 1.21453 16.1881L4.28201 15.6587C4.37963 15.6414 4.4791 15.6371 4.57785 15.6457C4.93692 14.2533 5.48991 12.9182 6.22059 11.6798C6.14515 11.6147 6.07803 11.5406 6.02076 11.4591L4.22751 8.91555C4.03913 8.63002 3.95232 8.28941 3.98103 7.94854C4.00975 7.60767 4.15233 7.28638 4.38581 7.0364L7.03287 4.38899C7.28269 4.15445 7.60428 4.01099 7.94568 3.98179C8.28708 3.95259 8.62835 4.03936 8.91436 4.22807L11.4576 6.02156C11.5396 6.07916 11.6138 6.14722 11.6782 6.22401C12.9162 5.49206 14.2511 4.9381 15.6436 4.57846C15.6349 4.47969 15.6392 4.3802 15.6566 4.28258L16.186 1.21469C16.2547 0.879374 16.4346 0.577052 16.6964 0.356623C16.9583 0.136194 17.2868 0.0105456 17.6289 0H21.3711C21.7132 0.0105456 22.0417 0.136194 22.3036 0.356623C22.5654 0.577052 22.7453 0.879374 22.814 1.21469L23.3434 4.28258C23.3603 4.38025 23.3647 4.47969 23.3564 4.57846C24.7488 4.93827 26.0837 5.49221 27.3218 6.22401C27.3862 6.14722 27.4604 6.07916 27.5424 6.02156L30.0856 4.22807C30.3713 4.03956 30.7121 3.9529 31.053 3.9821C31.394 4.0113 31.7151 4.15466 31.9645 4.38899L34.6116 7.0364C34.8459 7.28584 34.9892 7.60702 35.0184 7.94802C35.0476 8.28902 34.961 8.6299 34.7725 8.91555L32.9792 11.4591C32.9211 11.5408 32.8531 11.6149 32.7768 11.6798C33.5087 12.9179 34.0626 14.253 34.4221 15.6457C34.5209 15.637 34.6204 15.6413 34.718 15.6587L37.7855 16.1881C38.1205 16.2573 38.4226 16.4373 38.6429 16.6991C38.8632 16.9609 38.989 17.2892 39 17.6312ZM26.141 19.5C26.1405 18.1866 25.7506 16.9028 25.0207 15.8109C24.2908 14.7191 23.2536 13.8682 22.0402 13.3658C20.8268 12.8634 19.4918 12.7321 18.2038 12.9885C16.9158 13.2448 15.7327 13.8773 14.8041 14.8061C13.8755 15.7348 13.2431 16.918 12.9867 18.2062C12.7304 19.4943 12.8617 20.8296 13.364 22.0431C13.8663 23.2567 14.7171 24.294 15.8088 25.024C16.9005 25.7541 18.1842 26.144 19.4974 26.1445C20.3699 26.1448 21.234 25.9732 22.0402 25.6394C22.8464 25.3056 23.5789 24.8162 24.1959 24.1991C24.8129 23.5821 25.3022 22.8494 25.636 22.0431C25.9697 21.2368 26.1413 20.3727 26.141 19.5Z" fill="black"/>
</svg>
