<svg width="48" height="39" viewBox="0 0 48 39" fill="none" xmlns="http://www.w3.org/2000/svg">
<path fill-rule="evenodd" clip-rule="evenodd" d="M21.6357 4.39378C21.6378 4.4054 21.6397 4.42235 21.6397 4.44558V34.555C21.6397 34.5784 21.6378 34.5956 21.6357 34.6073L15.2385 27.3992L15.2075 27.365C14.8078 26.9336 14.3236 26.5891 13.7851 26.3529C13.2465 26.1167 12.6651 25.9939 12.0771 25.9922H4.35408C4.34262 25.978 4.32793 25.9501 4.32793 25.9035V13.095C4.32793 13.0498 4.34226 13.0225 4.35378 13.0084H12.0879L12.0956 13.0084C12.6742 13.0063 13.2463 12.8871 13.7776 12.6579C14.3088 12.4287 14.7882 12.0943 15.1867 11.6749C15.2041 11.6566 15.2212 11.6379 15.2379 11.619L21.6357 4.39378ZM18.549 1.35399C21.3938 -1.60822 25.9676 0.682223 25.9676 4.44558V34.555C25.9676 38.3487 21.3345 40.6229 18.5102 37.6046C18.4972 37.5907 18.4844 37.5767 18.4718 37.5624L12.0442 30.3201H4.32793C1.85765 30.3201 0 28.2606 0 25.9035V13.095C0 10.7386 1.85898 8.68046 4.32793 8.68046H12.0592L18.4896 1.41833C18.509 1.39649 18.5287 1.37504 18.549 1.35399Z" fill="black"/>
<path fill-rule="evenodd" clip-rule="evenodd" d="M31.1614 10.1706C32.1177 9.45365 33.474 9.64767 34.1909 10.6039C36 13.0169 36.7869 16.3499 36.7869 19.4758C36.7869 22.6018 36 25.9348 34.1909 28.3478C33.474 29.304 32.1177 29.498 31.1614 28.7811C30.2052 28.0642 30.0112 26.7079 30.7281 25.7517C31.8036 24.3171 32.459 22 32.459 19.4758C32.459 16.9517 31.8036 14.6346 30.7281 13.2C30.0112 12.2438 30.2052 10.8875 31.1614 10.1706Z" fill="black"/>
<path fill-rule="evenodd" clip-rule="evenodd" d="M37.3865 2.83354C38.2119 1.96918 39.5816 1.93755 40.446 2.7629C49.9594 11.8469 50.0331 27.1488 40.4361 36.1979C39.5666 37.0178 38.197 36.9776 37.3771 36.108C36.5572 35.2385 36.5975 33.869 37.467 33.0491C45.2337 25.7256 45.2036 13.2898 37.4571 5.89304C36.5928 5.06769 36.5612 3.69791 37.3865 2.83354Z" fill="black"/>
</svg>
